<?xml version="1.0"?>
<svg xmlns="http://www.w3.org/2000/svg" xmlns:xlink="http://www.w3.org/1999/xlink" viewBox="0 0 512 512" width="512" height="512"><linearGradient id="a" gradientUnits="userSpaceOnUse" x1="256" x2="256" y1="2.766" y2="522.684"><stop offset="0" stop-color="#00efd1"/><stop offset="1" stop-color="#00acea"/></linearGradient><path d="m489.689 255.853c-.025-.247-.112-.494-.156-.741-.016-.088-.046-.178-.064-.265s-.055-.164-.074-.246c-.058-.249-.123-.5-.2-.739l-.008-.012a9.954 9.954 0 0 0 -.351-.934v-.013l-59.526-137.653a10.209 10.209 0 0 0 -9.175-6.25h-126.8a38.849 38.849 0 0 0 -74.668 0h-126.802a10.209 10.209 0 0 0 -9.175 6.25l-59.521 137.541s0 .065 0 .069c-.131.3-.248.643-.35.962v.027c-.076.241-.136.5-.194.745-.02.082-.046.167-.064.25s-.026.179-.042.266c-.044.247-.087.495-.113.742 0 .008-.173.018-.174.027-.033.328-.223.656-.223.982v.016a69.5 69.5 0 1 0 139 0v-.018c0-.318.2-.638.17-.959 0-.016.108-.033.106-.049-.025-.241-.012-.482-.056-.723-.016-.094 0-.19-.017-.283s-.032-.169-.052-.253c-.057-.247-.11-.492-.185-.731 0-.009 0-.018-.007-.027a9.725 9.725 0 0 0 -.343-.919s0-.234 0-.239l-53.525-123.676h111.162a39.192 39.192 0 0 0 27.738 28.747v218.253h-60.143a9.822 9.822 0 0 0 -9.9 8.38l-5.01 34.969a10.264 10.264 0 0 0 2.345 8.085 10.117 10.117 0 0 0 7.555 3.566h145.3a10.268 10.268 0 0 0 9.9-11.669l-5.01-34.908a9.859 9.859 0 0 0 -9.9-8.423h-55.137v-218.253a39.192 39.192 0 0 0 27.738-28.747h111.162l-53.513 123.676v.127c-.13.3-.245.662-.345.975 0 .009-.006.046-.009.055-.076.239-.135.5-.193.745-.02.084-.047.175-.065.26s-.028.193-.045.287c-.043.24-.085.483-.11.724 0 .016.217.034.215.05-.031.321.17.642.17.96v.018a69.5 69.5 0 1 0 139 0v-.016c0-.326-.19-.654-.223-.982-.006-.009-.092-.018-.093-.026zm-397.823 50.668c-23.881 0-43.866-17.521-48.506-39.521h97.062c-4.643 22-24.65 39.521-48.556 39.521zm44.334-59.521h-88.626l44.3-102.277zm176.259 149 2.154 15h-122.236l2.153-15zm-56.459-256.942a18.859 18.859 0 1 1 18.859-18.858 18.88 18.88 0 0 1 -18.859 18.858zm164.13 5.665 44.296 102.277h-88.626zm0 161.8c-23.906 0-43.913-17.521-48.556-39.521h97.066c-4.64 21.998-24.625 39.519-48.506 39.519z" fill="url(#a)"/></svg>
